<svg width="130" height="130" viewBox="0 0 130 130" fill="none" xmlns="http://www.w3.org/2000/svg">
<path d="M125 65C125 72.8793 123.448 80.6815 120.433 87.961C117.417 95.2405 112.998 101.855 107.426 107.426C101.855 112.998 95.2405 117.417 87.961 120.433C80.6815 123.448 72.8793 125 65 125C57.1207 125 49.3185 123.448 42.039 120.433C34.7595 117.417 28.1451 112.998 22.5736 107.426C17.0021 101.855 12.5825 95.2405 9.56723 87.961C6.55195 80.6815 5 72.8793 5 65C5 49.087 11.3214 33.8258 22.5736 22.5736C33.8258 11.3214 49.087 5 65 5C80.913 5 96.1742 11.3214 107.426 22.5736C118.679 33.8258 125 49.087 125 65Z" stroke="#9E8149" stroke-width="10" stroke-linecap="round" stroke-linejoin="round"/>
</svg>
